:SAMPLES-PER-SECOND 30
:FULLY-SPECIFIED
:DEGREES
160
root  -74.4995 41.6226 -5.55867 -172.75 -86.1836 170.964
RightUpLeg  -1.71308 -6.97034 -2.1376
RightLeg  2.08323 -3.69108 5.21133
RightFoot  -2.0087 -0.285436 3.32781
RightToes  0.00048216 0.542163 -0.142577
Spine  6.30884 1.66326 7.68822
Spine1  -6.03416 2.86219 -7.39014
HEad  -9.71779 2.77026 -0.669415
LeftShoulder1  0.711795 -1.2955 -7.14214
LeftArm  -15.7472 12.4315 -2.01296
LeftForeArm  4.15779 -0.651632 -1.9366
LeftHand  -0.25398 0.0180481 5.50724
RightShoulder  0.505775 0.0778919 6.46117
RightArm  -17.3493 -2.11159 -1.60591
RightForeArm  -8.37482 -2.3416 4.08257
RightHand  -1.49435 4.7864 -17.2838
LeftUpLeg  -1.34489 6.17286 2.76148
LeftLeg  6.60496 17.3948 -2.33673
LeftFoot  -5.21048 0.0177073 0.255867
LeftToes  1.06246e-005 4.65856e-005 -8.18505e-006
161
root  -74.5225 41.6256 -5.55801 -173.309 -86.3871 171.619
RightUpLeg  -1.80048 -6.9294 -2.03256
RightLeg  2.11942 -3.9552 5.20273
RightFoot  -1.95783 -0.246565 2.84002
RightToes  0.00048216 0.542163 -0.142577
Spine  6.41798 1.63859 7.45978
Spine1  -6.20839 2.82175 -7.34621
HEad  -9.22608 2.55623 -0.277649
LeftShoulder1  0.744157 -1.5345 -7.07818
LeftArm  -15.8939 12.6358 -1.85082
LeftForeArm  4.94326 -0.582371 -1.79154
LeftHand  -0.25398 0.0180481 5.50724
RightShoulder  0.503811 0.046191 6.53769
RightArm  -17.1418 -2.13499 -1.50118
RightForeArm  -8.58427 -2.23756 4.1779
RightHand  -1.44874 4.51911 -17.203
LeftUpLeg  -1.40385 6.15586 2.8246
LeftLeg  6.45757 17.1968 -2.41903
LeftFoot  -5.0462 0.00866456 0.3964
LeftToes  1.06246e-005 4.65856e-005 -8.18505e-006
162
root  -74.5458 41.6292 -5.55138 -174.113 -86.5436 172.433
RightUpLeg  -1.79369 -6.86144 -1.93043
RightLeg  2.14956 -4.17003 5.15138
RightFoot  -1.95316 -0.217347 2.48362
RightToes  0.00048216 0.542163 -0.142577
Spine  6.53862 1.59738 7.07407
Spine1  -6.21859 2.74398 -7.09423
HEad  -8.91739 2.37227 0.0442319
LeftShoulder1  0.736808 -1.48933 -7.06259
LeftArm  -15.6287 12.6689 -1.7279
LeftForeArm  4.89483 -0.708447 -1.91239
LeftHand  -0.25398 0.0180481 5.50724
RightShoulder  0.526451 0.134442 6.85258
RightArm  -16.9577 -2.00926 -1.68449
RightForeArm  -8.29828 -2.27528 4.23558
RightHand  -1.49058 4.76537 -17.2753
LeftUpLeg  -1.39414 6.12439 2.86312
LeftLeg  6.43095 17.0909 -2.40389
LeftFoot  -4.89517 -0.00156093 0.555318
LeftToes  1.06246e-005 4.65856e-005 -8.18505e-006
163
root  -74.57 41.6311 -5.5403 -175.211 -86.6843 173.546
RightUpLeg  -1.77204 -6.76191 -1.82704
RightLeg  2.13456 -4.3456 5.09342
RightFoot  -1.91984 -0.198679 2.25124
RightToes  0.00048216 0.542163 -0.142577
Spine  6.57301 1.59663 6.57067
Spine1  -6.084 2.6665 -6.54875
HEad  -8.86009 2.31068 0.0884023
LeftShoulder1  0.73967 -1.44343 -7.27667
LeftArm  -15.2491 12.6323 -1.60522
LeftForeArm  4.4246 -0.951537 -2.12606
LeftHand  -0.25398 0.0180481 5.50724
RightShoulder  0.53655 0.19127 6.90843
RightArm  -17.0868 -1.90823 -1.72675
RightForeArm  -8.00291 -2.35016 4.17889
RightHand  -1.54848 5.09365 -17.3913
LeftUpLeg  -1.41508 6.06272 2.90039
LeftLeg  6.50981 17.0281 -2.33453
LeftFoot  -4.80566 -0.00393436 0.592205
LeftToes  1.06246e-005 4.65856e-005 -8.18505e-006
164
root  -74.5903 41.6297 -5.53147 -176.584 -86.8306 174.991
RightUpLeg  -1.78408 -6.63293 -1.70914
RightLeg  2.04407 -4.53567 5.04804
RightFoot  -1.7943 -0.190938 2.13901
RightToes  0.00048216 0.542163 -0.142577
Spine  6.53373 1.55796 6.37557
Spine1  -5.95853 2.62661 -6.55794
HEad  -8.7376 2.28642 0.290514
LeftShoulder1  0.733082 -1.51091 -6.91234
LeftArm  -15.4696 12.6162 -1.88733
LeftForeArm  4.71236 -0.959141 -2.04277
LeftHand  -0.25398 0.0180481 5.50724
RightShoulder  0.555624 0.22237 7.34787
RightArm  -17.1243 -1.78321 -1.94793
RightForeArm  -8.16478 -2.40305 4.18684
RightHand  -1.51412 4.94323 -17.2517
LeftUpLeg  -1.50991 6.02577 2.9828
LeftLeg  6.56555 16.9065 -2.34612
LeftFoot  -4.67865 -0.00625175 0.628221
LeftToes  1.06246e-005 4.65856e-005 -8.18505e-006
165
root  -74.6063 41.629 -5.52287 -178.106 -86.9646 176.584
RightUpLeg  -1.81585 -6.52487 -1.58604
RightLeg  1.97425 -4.72667 5.01733
RightFoot  -1.63321 -0.172501 1.89972
RightToes  0.00048216 0.542163 -0.142577
Spine  6.56988 1.50663 6.47717
Spine1  -5.99917 2.62867 -6.95312
HEad  -8.37466 2.11794 0.539264
LeftShoulder1  0.757013 -1.78879 -6.56248
LeftArm  -15.9642 12.5402 -1.96852
LeftForeArm  5.59484 -0.7268 -1.78128
LeftHand  -0.25398 0.0180481 5.50724
RightShoulder  0.566237 0.211053 7.71824
RightArm  -16.78 -1.78097 -2.0888
RightForeArm  -8.55642 -2.39873 4.33192
RightHand  -1.44269 4.58327 -17.0299
LeftUpLeg  -1.59204 6.03819 3.08616
LeftLeg  6.56091 16.7547 -2.41571
LeftFoot  -4.54087 -0.0143993 0.754851
LeftToes  1.06246e-005 4.65856e-005 -8.18505e-006
166
root  -74.6213 41.6306 -5.51123 -179.334 -87.0752 177.837
RightUpLeg  -1.86275 -6.47909 -1.48597
RightLeg  2.02466 -4.86346 4.99656
RightFoot  -1.49901 -0.12421 1.32365
RightToes  0.00048216 0.542163 -0.142577
Spine  6.67837 1.4704 6.44027
Spine1  -6.06567 2.59687 -6.97996
HEad  -8.05288 1.97116 0.511074
LeftShoulder1  0.806574 -2.03439 -6.86089
LeftArm  -15.9835 12.3719 -1.50216
LeftForeArm  5.90167 -0.70676 -1.75658
LeftHand  -0.25398 0.0180481 5.50724
RightShoulder  0.561612 0.198146 7.63784
RightArm  -16.4311 -1.87277 -1.98995
RightForeArm  -8.98082 -2.3423 4.47527
RightHand  -1.45015 4.55598 -17.1576
LeftUpLeg  -1.59797 6.07086 3.15167
LeftLeg  6.52808 16.6345 -2.45781
LeftFoot  -4.46563 -0.0224554 0.880063
LeftToes  1.06246e-005 4.65856e-005 -8.18505e-006
167
root  -74.6358 41.6333 -5.4978 -179.999 -87.145 178.49
RightUpLeg  -1.90183 -6.47352 -1.43068
RightLeg  2.13059 -4.91704 4.98089
RightFoot  -1.38548 -0.0696905 0.691022
RightToes  0.00048216 0.542163 -0.142577
Spine  6.77638 1.45371 6.07456
Spine1  -6.00117 2.51353 -6.48164
HEad  -7.87725 2.01795 0.27004
LeftShoulder1  0.838178 -2.05065 -7.45019
LeftArm  -15.5503 12.1905 -0.976164
LeftForeArm  5.31007 -1.05224 -2.01341
LeftHand  -0.25398 0.0180481 5.50724
RightShoulder  0.544469 0.14729 7.34736
RightArm  -16.5947 -1.83609 -1.78955
RightForeArm  -9.11454 -2.30333 4.4407
RightHand  -1.49617 4.73666 -17.3854
LeftUpLeg  -1.55975 6.11621 3.17473
LeftLeg  6.50166 16.542 -2.47963
LeftFoot  -4.41129 -0.0262873 0.939624
LeftToes  1.06246e-005 4.65856e-005 -8.18505e-006
168
root  -74.6487 41.635 -5.47981 179.539 -87.1277 178.915
RightUpLeg  -1.874 -6.47082 -1.4204
RightLeg  2.16897 -4.88393 4.97183
RightFoot  -1.29064 -0.0474282 0.443538
RightToes  0.00048216 0.542163 -0.142577
Spine  6.8988 1.44269 5.72834
Spine1  -5.89906 2.45296 -6.09173
HEad  -7.69114 2.11196 0.142312
LeftShoulder1  0.827271 -1.92866 -7.59788
LeftArm  -15.3439 12.0253 -0.938918
LeftForeArm  4.85655 -1.36155 -2.18806
LeftHand  -0.25398 0.0180481 5.50724
RightShoulder  0.516668 -0.0136053 7.22586
RightArm  -17.1396 -1.5498 -1.64097
RightForeArm  -8.83327 -2.37005 4.26972
RightHand  -1.49059 4.73979 -17.3171
LeftUpLeg  -1.49873 6.17014 3.18822
LeftLeg  6.50123 16.5046 -2.50935
LeftFoot  -4.34741 -0.0293636 0.987439
LeftToes  1.06246e-005 4.65856e-005 -8.18505e-006
169
root  -74.6617 41.6359 -5.45259 178.825 -87.0183 179.574
RightUpLeg  -1.78931 -6.46853 -1.43226
RightLeg  2.13997 -4.782 4.97468
RightFoot  -1.24178 -0.0534135 0.53818
RightToes  0.00048216 0.542163 -0.142577
Spine  7.12959 1.42034 5.77144
Spine1  -5.98996 2.46701 -6.30933
HEad  -7.08529 1.99596 0.328892
LeftShoulder1  0.80906 -1.93551 -7.2073
LeftArm  -15.5741 11.8723 -1.23455
LeftForeArm  5.27488 -1.26098 -2.10191
LeftHand  -0.25398 0.0180481 5.50724
RightShoulder  0.496669 -0.167153 7.31551
RightArm  -17.4857 -1.28372 -1.58216
RightForeArm  -8.60054 -2.50528 4.15292
RightHand  -1.47145 4.64411 -17.2578
LeftUpLeg  -1.41108 6.19926 3.20404
LeftLeg  6.51611 16.5762 -2.52658
LeftFoot  -4.34763 -0.0332729 1.0482
LeftToes  1.06246e-005 4.65856e-005 -8.18505e-006
